<svg width="640" height="420" viewBox="0 0 640 420" fill="none" xmlns="http://www.w3.org/2000/svg">
  <rect width="640" height="420" rx="32" fill="url(#paint0_radial)"/>
  <g filter="url(#filter0_d)">
    <rect x="120" y="210" width="400" height="120" rx="24" fill="#0F172A"/>
    <rect x="160" y="190" width="260" height="90" rx="18" fill="#1E293B"/>
    <rect x="430" y="226" width="70" height="76" rx="12" fill="#1E293B"/>
    <rect x="450" y="206" width="50" height="52" rx="12" fill="#334155"/>
    <rect x="176" y="218" width="100" height="44" rx="12" fill="#38BDF8"/>
    <rect x="290" y="218" width="116" height="44" rx="12" fill="#0EA5E9"/>
    <circle cx="204" cy="332" r="36" fill="#111827" stroke="#38BDF8" stroke-width="8"/>
    <circle cx="204" cy="332" r="16" fill="#38BDF8"/>
    <circle cx="424" cy="332" r="36" fill="#111827" stroke="#38BDF8" stroke-width="8"/>
    <circle cx="424" cy="332" r="16" fill="#38BDF8"/>
  </g>
  <g opacity="0.4">
    <path d="M80 140H300" stroke="#38BDF8" stroke-width="2" stroke-linecap="round" stroke-dasharray="6 12"/>
    <path d="M340 110H540" stroke="#94A3B8" stroke-width="2" stroke-linecap="round" stroke-dasharray="4 10"/>
    <path d="M100 90H220" stroke="#38BDF8" stroke-width="2" stroke-linecap="round" stroke-dasharray="4 12"/>
    <circle cx="540" cy="110" r="8" fill="#38BDF8"/>
    <circle cx="300" cy="140" r="8" fill="#38BDF8"/>
  </g>
  <defs>
    <filter id="filter0_d" x="80" y="170" width="480" height="220" filterUnits="userSpaceOnUse" color-interpolation-filters="sRGB">
      <feFlood flood-opacity="0" result="BackgroundImageFix"/>
      <feColorMatrix in="SourceAlpha" type="matrix" values="0 0 0 0 0 0 0 0 0 0 0 0 0 0 0 0 0 0 127 0" result="hardAlpha"/>
      <feOffset dy="12"/>
      <feGaussianBlur stdDeviation="24"/>
      <feComposite in2="hardAlpha" operator="out"/>
      <feColorMatrix type="matrix" values="0 0 0 0 0.06 0 0 0 0 0.09 0 0 0 0 0.17 0 0 0 0.24 0"/>
      <feBlend mode="normal" in2="BackgroundImageFix" result="effect1_dropShadow"/>
      <feBlend mode="normal" in="SourceGraphic" in2="effect1_dropShadow" result="shape"/>
    </filter>
    <radialGradient id="paint0_radial" cx="0" cy="0" r="1" gradientUnits="userSpaceOnUse" gradientTransform="translate(160 60) rotate(30) scale(600 420)">
      <stop stop-color="#0EA5E9"/>
      <stop offset="1" stop-color="#0F172A"/>
    </radialGradient>
  </defs>
</svg>
