<svg width="32" height="32" viewBox="0 0 32 32" xmlns="http://www.w3.org/2000/svg" fill="none">
  <rect width="32" height="32" rx="6" fill="#0A4F91"/>
  <path d="M6 20C6 18.8954 6.89543 18 8 18H10C10 16.8954 10.8954 16 12 16H18C19.1046 16 20 16.8954 20 18H22C23.1046 18 24 18.8954 24 20V24C24 25.1046 23.1046 26 22 26H20C20 27.1046 19.1046 28 18 28C16.8954 28 16 27.1046 16 26H12C12 27.1046 11.1046 28 10 28C8.89543 28 8 27.1046 8 26H6C4.89543 26 4 25.1046 4 24V20C4 18.8954 4.89543 18 6 18V20Z" fill="white"/>
  <rect x="12" y="18" width="6" height="4" rx="1" fill="#FF7A1A"/>
  <circle cx="10" cy="26" r="2" fill="#0F1724"/>
  <circle cx="10" cy="26" r="1" fill="white"/>
  <circle cx="18" cy="26" r="2" fill="#0F1724"/>
  <circle cx="18" cy="26" r="1" fill="white"/>
  <path d="M20 20L26 14" stroke="#FF7A1A" stroke-width="2" stroke-linecap="round" stroke-linejoin="round"/>
  <path d="M18 22L20 20" stroke="#FF7A1A" stroke-width="2" stroke-linecap="round" stroke-linejoin="round"/>
</svg>

